<?xml version="1.0" encoding="UTF-8" standalone="no"?>
<!DOCTYPE svg PUBLIC "-//W3C//DTD SVG 1.0//EN" "http://www.w3.org/TR/2001/REC-SVG-20010904/DTD/svg10.dtd">
<!-- Created with Inkscape (http://www.inkscape.org/) -->
<svg
   xmlns:svg="http://www.w3.org/2000/svg"
   xmlns="http://www.w3.org/2000/svg"
   version="1.0"
   width="600"
   height="110"
   id="svg2556">
  <defs
     id="defs2558">
    <clipPath
       id="clipPath27">
      <path
         d="M -31.691,106.8198 L -31.691,-16.1152 L 487.712,-16.1152 L 487.712,106.8198"
         id="path29" />
    </clipPath>
    <clipPath
       id="clipPath19">
      <path
         d="M -14.173,-19.8422 L 595.276,-19.8422 L 595.276,116.2208 L -14.173,116.2208 L -14.173,-19.8422 z"
         id="path21" />
    </clipPath>
  </defs>
  <g
     transform="translate(-412.85651,-526.49339)"
     id="layer1">
    <g
       transform="matrix(3.6460546,0,0,3.6460546,-1087.4409,-1662.2147)"
       id="g2695">
      <path
         d="M 483.83652,629.50634 L 483.83652,625.84172 L 482.92527,625.84172 L 482.92527,629.50634 L 482.01402,629.50634 L 482.01402,625.84172 L 481.09527,625.84172 L 481.09527,629.50634 L 480.17652,629.50634 L 480.17652,624.93359 L 484.75152,624.93359 L 484.75152,629.50634 L 483.83652,629.50634"
         id="path39"
         style="fill:#e52b34;fill-opacity:1;fill-rule:nonzero;stroke:none" />
      <path
         d="M 487.49902,629.50634 L 488.42402,629.50634 L 488.42402,624.93359 L 487.49902,624.93359 L 487.49902,629.50634 z"
         id="path41"
         style="fill:#e52b34;fill-opacity:1;fill-rule:nonzero;stroke:none" />
      <path
         d="M 491.17277,629.50634 L 491.17277,628.58834 L 494.83652,628.58834 L 494.83652,627.66796 L 491.17277,627.66796 L 491.17277,624.93359 L 495.73777,624.93359 L 495.73777,625.84172 L 492.08402,625.84172 L 492.08402,626.76097 L 495.73777,626.76097 L 495.73777,629.50634 L 491.17277,629.50634"
         id="path43"
         style="fill:#e52b34;fill-opacity:1;fill-rule:nonzero;stroke:none" />
      <path
         d="M 498.49527,629.50634 L 498.49527,628.58834 L 502.16027,628.58834 L 502.16027,627.66796 L 498.49527,627.66796 L 498.49527,624.93359 L 503.07527,624.93359 L 503.07527,625.84172 L 499.41527,625.84172 L 499.41527,626.76097 L 503.07527,626.76097 L 503.07527,629.50634 L 498.49527,629.50634"
         id="path45"
         style="fill:#e52b34;fill-opacity:1;fill-rule:nonzero;stroke:none" />
      <path
         d="M 505.83027,629.50634 L 506.73652,629.50634 L 506.73652,624.93359 L 505.83027,624.93359 L 505.83027,629.50634 z"
         id="path47"
         style="fill:#e52b34;fill-opacity:1;fill-rule:nonzero;stroke:none" />
      <path
         d="M 509.48402,629.50634 L 509.48402,624.93359 L 510.39527,624.93359 L 510.39527,628.58834 L 514.08152,628.58834 L 514.08152,629.50634 L 509.48402,629.50634"
         id="path49"
         style="fill:#e52b34;fill-opacity:1;fill-rule:nonzero;stroke:none" />
      <path
         d="M 515.95527,629.50634 L 515.95527,624.93359 L 520.53527,624.93359 L 520.53527,625.84172 L 516.87277,625.84172 L 516.87277,626.76097 L 520.53527,626.76097 L 520.53527,627.66796 L 516.87277,627.66796 L 516.87277,628.58834 L 520.53527,628.58834 L 520.53527,629.50634 L 515.95527,629.50634"
         id="path51"
         style="fill:#e52b34;fill-opacity:1;fill-rule:nonzero;stroke:none" />
      <path
         d="M 527.85027,629.50634 L 527.85027,628.58834 L 531.51777,628.58834 L 531.51777,627.66796 L 527.85027,627.66796 L 527.85027,624.93359 L 532.43152,624.93359 L 532.43152,625.84172 L 528.76902,625.84172 L 528.76902,626.76097 L 532.43152,626.76097 L 532.43152,629.50634 L 527.85027,629.50634"
         id="path53"
         style="fill:#e51535;fill-opacity:1;fill-rule:nonzero;stroke:none" />
      <path
         d="M 535.17777,629.50634 L 535.17777,628.58834 L 538.84902,628.58834 L 538.84902,627.66796 L 535.17777,627.66796 L 535.17777,624.93359 L 536.08402,624.93359 L 536.08402,626.76097 L 538.84902,626.76097 L 538.84902,624.93359 L 539.76027,624.93359 L 539.76027,629.50634 L 535.17777,629.50634"
         id="path55"
         style="fill:#e51535;fill-opacity:1;fill-rule:nonzero;stroke:none" />
      <path
         d="M 542.50777,629.50634 L 542.50777,628.58834 L 546.17402,628.58834 L 546.17402,627.66796 L 542.50777,627.66796 L 542.50777,624.93359 L 547.08152,624.93359 L 547.08152,625.84172 L 543.41277,625.84172 L 543.41277,626.76097 L 547.08152,626.76097 L 547.08152,629.50634 L 542.50777,629.50634"
         id="path57"
         style="fill:#e51535;fill-opacity:1;fill-rule:nonzero;stroke:none" />
      <path
         d="M 551.72027,625.84172 L 551.72027,629.50634 L 550.80402,629.50634 L 550.80402,625.84172 L 548.98527,625.84172 L 548.98527,624.93359 L 553.55277,624.93359 L 553.55277,625.84172 L 551.72027,625.84172"
         id="path59"
         style="fill:#e51535;fill-opacity:1;fill-rule:nonzero;stroke:none" />
      <path
         d="M 555.43152,629.50634 L 555.43152,624.93359 L 560.02402,624.93359 L 560.02402,625.84172 L 556.34402,625.84172 L 556.34402,626.76097 L 560.02402,626.76097 L 560.02402,627.66796 L 556.34402,627.66796 L 556.34402,628.58834 L 560.02402,628.58834 L 560.02402,629.50634 L 555.43152,629.50634"
         id="path61"
         style="fill:#e51535;fill-opacity:1;fill-rule:nonzero;stroke:none" />
      <path
         d="M 566.43277,629.50634 L 566.43277,625.84172 L 565.51777,625.84172 L 565.51777,629.50634 L 564.59777,629.50634 L 564.59777,625.84172 L 563.67652,625.84172 L 563.67652,629.50634 L 562.76027,629.50634 L 562.76027,624.93359 L 567.34902,624.93359 L 567.34902,629.50634 L 566.43277,629.50634"
         id="path63"
         style="fill:#e51535;fill-opacity:1;fill-rule:nonzero;stroke:none" />
      <path
         d="M 570.09402,629.50634 L 570.09402,628.58834 L 573.75527,628.58834 L 573.75527,627.66796 L 570.09402,627.66796 L 570.09402,624.93359 L 574.67527,624.93359 L 574.67527,625.84172 L 571.00902,625.84172 L 571.00902,626.76097 L 574.67527,626.76097 L 574.67527,629.50634 L 570.09402,629.50634"
         id="path65"
         style="fill:#e51535;fill-opacity:1;fill-rule:nonzero;stroke:none" />
      <path
         d="M 527.39402,614.86759 C 527.39402,616.64009 525.95527,618.06834 524.18152,618.06834 C 522.42527,618.06834 520.98902,616.64009 520.98902,614.86759 C 520.98902,613.10009 522.42527,611.66334 524.18152,611.66334 C 525.95527,611.66334 527.39402,613.10009 527.39402,614.86759"
         id="path67"
         style="fill:#e52b34;fill-opacity:1;fill-rule:nonzero;stroke:none" />
      <path
         d="M 454.82652,617.61184 L 443.74402,617.61184 L 448.07277,608.20021 C 448.70277,606.88297 448.82277,606.60596 449.46527,605.46821 C 448.32777,606.69509 448.14027,606.90984 447.22902,607.90472 L 438.19277,617.61184 L 429.49027,617.61184 L 429.32277,608.17571 C 429.29902,607.16984 429.29402,606.05171 429.31652,605.56097 C 428.91777,606.65109 428.83027,606.91597 428.33652,607.96947 L 423.87402,617.61184 L 412.85652,617.61184 L 420.59152,601.25309 L 437.45152,601.25309 L 437.45152,607.90472 C 437.43527,609.13647 437.38652,609.33546 437.18652,610.52071 C 438.26777,609.08034 438.53027,608.78359 439.56652,607.59347 L 445.28152,601.25309 L 462.18402,601.25309 L 454.82652,617.61184"
         id="path69"
         style="fill:#231f20;fill-opacity:1;fill-rule:nonzero;stroke:none" />
      <path
         d="M 477.23902,603.99122 L 478.55402,603.99122 C 480.06027,603.99122 482.09902,604.00584 482.18652,605.28272 C 482.22902,606.12134 481.44652,606.97209 480.39402,607.36522 C 479.26277,607.80584 477.68902,607.84009 476.49277,607.84009 L 475.46777,607.84009 L 477.23902,603.99122 z M 474.58902,617.61184 C 478.94527,617.61184 483.15527,617.61184 486.12527,616.77559 C 489.26652,615.89546 491.69902,613.84959 491.60027,611.85859 C 491.45402,609.47696 487.90652,609.05459 486.08652,608.85084 C 487.64902,608.62372 490.77277,608.20021 492.49152,606.62784 C 493.24277,605.97971 493.52652,605.22159 493.47777,604.49284 C 493.46527,604.03509 493.32902,602.57759 490.18027,601.76946 C 488.44152,601.30322 486.26152,601.27759 483.06402,601.25309 L 466.89527,601.25309 L 459.40027,617.61184 L 474.58902,617.61184 M 474.27152,610.40597 L 475.42652,610.40597 C 477.55652,610.40597 479.50527,610.41697 479.58652,611.80484 C 479.63527,612.77296 478.90777,613.81909 477.55652,614.35622 C 476.20652,614.90059 474.52652,614.90059 473.27152,614.90059 L 472.22027,614.90059 L 474.27152,610.40597"
         id="path71"
         style="fill:#231f20;fill-opacity:1;fill-rule:nonzero;stroke:none" />
      <path
         d="M 516.24527,607.47022 C 516.01777,608.25384 515.67527,609.07296 515.36402,609.84572 C 514.94652,610.76121 513.64152,613.78484 510.52527,614.57834 C 509.43777,614.84321 508.09527,614.87259 506.75902,614.90059 L 505.69152,614.90059 L 510.71777,603.99122 L 511.97402,603.99122 C 514.23652,604.00584 516.41652,604.03509 516.51402,605.79534 C 516.54027,606.37271 516.39277,606.90984 516.24527,607.47022 z M 522.87027,601.81959 C 520.71652,601.35196 518.30152,601.30934 514.50152,601.25309 L 499.99652,601.25309 L 492.49652,617.61184 L 509.91277,617.61184 C 511.40652,617.61184 512.87402,617.61184 514.35902,617.49334 C 516.83027,617.32009 518.72777,616.91846 520.22027,616.40209 C 520.03402,615.91621 519.92402,615.41934 519.92402,614.86759 C 519.92402,612.51534 521.83152,610.59397 524.18152,610.59397 C 524.98402,610.59397 525.71902,610.82959 526.36027,611.19572 C 527.32402,609.46484 527.90652,607.51284 527.82527,606.14084 C 527.74777,604.57584 526.98902,602.73634 522.87027,601.81959"
         id="path73"
         style="fill:#231f20;fill-opacity:1;fill-rule:nonzero;stroke:none" />
      <path
         d="M 546.67402,609.84572 L 542.59652,609.84572 L 547.08152,604.76384 L 546.67402,609.84572 z M 540.54152,601.25309 L 528.23027,613.55909 C 528.36277,613.97284 528.46152,614.40384 528.46152,614.86759 C 528.46152,615.91621 528.06527,616.86834 527.44527,617.61184 L 535.62902,617.61184 L 539.67902,613.10009 L 546.43902,613.10009 L 546.14152,617.61184 L 557.95152,617.61184 L 557.95152,601.25309 L 540.54152,601.25309"
         id="path75"
         style="fill:#231f20;fill-opacity:1;fill-rule:nonzero;stroke:none" />
    </g>
  </g>
</svg>
